PathFileType	4	(X/Y/Z)	s10c0203.trc
DataRate	CameraRate	NumFrames	NumMarkers	Units	OrigDataRate	OrigDataStartFrame	OrigNumFrames
200	200	4	49	mm	200	1750	2000
Frame#	Time	racr			lacr			c7			jug			rlel			rdr			llel			ldr			s2			lic			ric			lasi			rasi			rpsi			lpsi			rgt			lgt			rth1			rth2			rth3			rth4			rlfc			rmfc			rsh1			rsh2			rsh3			rsh4			rlmal			rmmal			rcal			rtoe			rmt5			lth1			lth2			lth4			lth3			llfc			lmfc			llmal			lcal			lmt5			lsh1			lsh2			lsh3			lsh4			ltoe			SBIKE			LBIKE			RBIKE			
		X1	Y1	Z1	X2	Y2	Z2	X3	Y3	Z3	X4	Y4	Z4	X5	Y5	Z5	X6	Y6	Z6	X7	Y7	Z7	X8	Y8	Z8	X9	Y9	Z9	X10	Y10	Z10	X11	Y11	Z11	X12	Y12	Z12	X13	Y13	Z13	X14	Y14	Z14	X15	Y15	Z15	X16	Y16	Z16	X17	Y17	Z17	X18	Y18	Z18	X19	Y19	Z19	X20	Y20	Z20	X21	Y21	Z21	X22	Y22	Z22	X23	Y23	Z23	X24	Y24	Z24	X25	Y25	Z25	X26	Y26	Z26	X27	Y27	Z27	X28	Y28	Z28	X29	Y29	Z29	X30	Y30	Z30	X31	Y31	Z31	X32	Y32	Z32	X33	Y33	Z33	X34	Y34	Z34	X35	Y35	Z35	X36	Y36	Z36	X37	Y37	Z37	X38	Y38	Z38	X39	Y39	Z39	X40	Y40	Z40	X41	Y41	Z41	X42	Y42	Z42	X43	Y43	Z43	X44	Y44	Z44	X45	Y45	Z45	X46	Y46	Z46	X47	Y47	Z47	X48	Y48	Z48	X49	Y49	Z49	
1750	8.7500	409.589653	1217.615633	-39.635330	422.620418	1249.233572	-364.860251	403.164281	1279.637649	-196.703180	389.384146	1138.491701	-210.601085	390.743489	968.348490	46.773882	584.772260	908.473186	-30.659849	414.563741	1009.111439	-505.953608	593.674921	906.370898	-427.650347	-113.770519	1093.569508	-235.487801	52.754038	1106.722741	-385.759420	47.610683	1111.319165	-105.870069	81.600472	1022.910346	-353.945458	72.181108	1041.280348	-99.545086	-80.907726	1157.138352	-183.312750	-60.399158	1158.075057	-293.970050	-40.180708	1007.808035	-41.882405	-34.023146	971.378729	-421.260814	64.863072	890.463620	-18.914730	146.038369	856.241142	-32.355612	196.439590	787.658628	-43.223851	167.282054	886.656968	-38.840183	281.725598	722.828898	-60.918352	279.053882	711.781533	-175.943435	233.302730	615.870589	-31.073770	247.333603	527.976684	-38.816011	216.339431	447.408837	-42.849929	279.489817	527.415345	-60.357849	203.231196	343.096089	-55.954412	222.617642	361.225925	-136.664697	153.033537	317.455200	-103.018153	395.143602	318.076923	-104.227560	318.434447	280.581488	-39.920739	62.438893	873.029856	-431.299487	142.554523	843.281248	-414.859760	162.471790	873.193900	-407.154155	197.720540	775.011645	-400.534779	279.323899	704.953406	-379.668007	269.991993	703.524888	-257.347506	-26.708877	493.774469	-380.096781	-87.351314	501.149811	-335.577342	6.869029	352.303498	-400.421620	173.854353	653.520256	-409.347726	128.253197	578.820120	-395.474256	48.531440	538.773692	-393.550786	148.774153	560.578392	-368.861663	85.277645	328.319147	-349.858361	-217.829169	830.452227	-213.936174	-103.930934	80.529096	-418.392789	-103.945188	80.570335	-18.358220	
1751	8.7550	411.666623	1217.197415	-41.929596	420.526065	1249.137311	-367.293947	403.035757	1279.803593	-198.623431	389.394908	1138.678610	-211.820277	391.055258	968.186726	45.344266	584.928166	908.428830	-30.772855	413.977691	1008.508167	-506.171123	593.850498	906.619667	-428.068831	-114.179757	1091.132121	-234.581585	51.520744	1106.341043	-384.805541	48.531992	1109.155180	-103.908199	81.346746	1022.182170	-352.867163	72.073193	1038.501431	-97.999297	-82.905583	1154.551247	-180.568245	-61.572759	1156.128056	-292.105542	-41.460322	1003.106341	-39.699549	-32.010314	969.994060	-420.992378	62.246546	883.649345	-17.868807	142.647503	848.004822	-31.819532	191.322266	778.477598	-44.528170	164.847730	878.449085	-37.277927	275.160140	713.451013	-61.615134	271.465062	703.097057	-176.723096	226.414240	606.139609	-31.219691	241.572531	518.339100	-38.760094	211.531148	437.424072	-43.065212	274.126794	518.007173	-59.893410	200.315385	332.995336	-56.107408	220.283579	350.846853	-136.955470	151.021277	308.197856	-102.678819	392.627016	307.278548	-104.248783	315.597274	270.245528	-39.967517	66.550959	873.495614	-430.469706	147.510006	846.954849	-413.273213	166.177555	877.314921	-404.727126	205.655543	780.988487	-400.009365	287.216295	714.374530	-378.982395	279.179743	712.056035	-256.155418	-20.227662	504.446443	-380.114218	-80.480470	513.283659	-335.775623	10.454360	362.373875	-400.479955	181.818886	662.917299	-409.739796	135.138985	588.042116	-395.351892	55.190636	548.889871	-393.501560	155.460535	569.693454	-368.522444	88.145214	336.653837	-349.955977	-217.818239	830.481238	-213.949729	-103.923044	80.540463	-418.383065	-103.962457	80.562685	-18.369823	
1752	8.7600	413.644297	1216.730301	-44.127250	418.318402	1249.062109	-370.062897	402.797021	1279.991929	-200.566546	389.305876	1138.894338	-213.114847	391.320954	968.103829	43.996741	585.009185	908.332143	-30.973140	413.316475	1007.894499	-506.474135	593.975619	906.826189	-428.530229	-114.497181	1088.609381	-233.090895	50.199555	1106.155193	-383.717974	49.346974	1107.098909	-102.009565	81.074473	1021.422793	-351.812156	71.961290	1035.617899	-96.295418	-82.258266	1150.573226	-179.064181	-62.690465	1154.511377	-290.122905	-42.484652	998.204917	-37.662490	-30.079416	968.671395	-420.568284	59.272775	877.438797	-16.537219	138.997420	839.870862	-31.360921	185.934787	769.451063	-45.531111	161.374756	868.954243	-36.516982	268.431713	703.757381	-62.553455	266.063150	694.490064	-176.742452	219.278928	596.574886	-31.425602	235.332908	508.992537	-38.742168	206.265257	427.773258	-43.291205	268.122979	508.888594	-59.523771	196.943310	323.008190	-56.441547	217.120043	340.670154	-137.311895	146.721824	297.127699	-104.427003	389.570569	296.796699	-103.421057	312.288698	259.999917	-40.018590	70.801290	874.632649	-429.576787	152.513709	851.446682	-411.372151	169.870792	882.618808	-402.792457	213.399137	788.055021	-399.216889	294.994149	724.622975	-378.655639	286.361099	720.907444	-255.256468	-13.333088	514.949718	-380.091347	-73.108911	524.952720	-335.994967	14.677775	372.095465	-400.568131	189.331059	672.096499	-409.561922	142.184757	597.644306	-395.109219	62.074209	558.756277	-393.438409	162.441129	579.103994	-368.338658	91.586954	344.608270	-349.957242	-217.825277	830.500311	-213.959614	-103.918699	80.534857	-418.390102	-103.938084	80.570522	-18.361781	
1753	8.7650	415.624906	1216.268982	-46.424706	416.038381	1249.008558	-373.015270	401.822583	1279.678424	-201.642871	390.766348	1138.448020	-213.954309	391.620815	968.101001	42.646201	585.104250	908.188793	-31.262375	412.665032	1007.217793	-506.872394	594.068601	907.008402	-429.075926	-114.721706	1086.324007	-231.303574	48.740220	1105.783852	-382.612133	50.240212	1105.048318	-99.813665	80.823391	1020.655006	-350.733748	71.460915	1033.685025	-92.939610	-77.612807	1144.636191	-179.625107	-63.378081	1152.770072	-287.860802	-43.394607	993.298470	-35.769638	-27.952484	967.380032	-420.186573	56.499715	871.709300	-15.590276	135.133098	832.032660	-30.908230	180.197806	760.729789	-46.368182	158.443943	860.757691	-35.278010	261.517358	694.089430	-62.705788	259.869604	686.012480	-177.053432	212.029255	587.192344	-31.693626	228.852736	499.672477	-38.848072	200.355636	418.310359	-43.768090	261.753853	500.001692	-59.237214	192.862514	313.440185	-56.830576	214.024292	330.863545	-137.687156	143.639627	288.770231	-103.977313	385.937926	286.279593	-103.544728	308.296761	249.944908	-40.053578	75.602943	876.986135	-428.756244	157.328815	856.963485	-409.449272	173.421955	889.122276	-401.333515	220.402160	795.743442	-398.147835	302.747589	735.510756	-378.252313	293.889839	729.821622	-254.744881	-6.091493	525.122871	-379.993730	-65.615720	536.560019	-336.509072	19.312596	381.765527	-400.591812	196.276390	681.135268	-408.648884	149.407962	607.215312	-394.884512	69.172091	568.668421	-393.308735	169.569577	588.525320	-368.200139	95.615688	352.632257	-350.026469	-217.808133	830.520769	-213.916410	-103.908004	80.550651	-418.379891	-103.924451	80.549100	-18.356533	
